<svg viewBox="0 0 800 500" preserveAspectRatio="none" xmlns="http://www.w3.org/2000/svg" xmlns:xlink="http://www.w3.org/1999/xlink" width="100%" id="blobSvg">
  <g transform="translate(-213, -40)">
    <defs>
      <pattern id="pattern" x="0" y="0" width="40" height="40" patternUnits="userSpaceOnUse" fill="#96BDE1">
        <path d="M0 38.59l2.83-2.83 1.41 1.41L1.41 40H0v-1.41zM0 1.4l2.83 2.83 1.41-1.41L1.41 0H0v1.41zM38.59 40l-2.83-2.83 1.41-1.41L40 38.59V40h-1.41zM40 1.41l-2.83 2.83-1.41-1.41L38.59 0H40v1.41zM20 18.6l2.83-2.83 1.41 1.41L21.41 20l2.83 2.83-1.41 1.41L20 21.41l-2.83 2.83-1.41-1.41L18.59 20l-2.83-2.83 1.41-1.41L20 18.59z"></path>
      </pattern>
    </defs>
    <path class="blob" d="M426.5,318Q412,386,341.5,377.5Q271,369,210,396.5Q149,424,83,379.5Q17,335,31,255Q45,175,86,106Q127,37,206,44Q285,51,317,109Q349,167,395,208.5Q441,250,426.5,318Z" fill="url(#pattern)"></path>
  </g>
</svg>